<mxfile host="app.diagrams.net" agent="Mozilla/5.0 (Windows NT 10.0; Win64; x64) AppleWebKit/537.36 (KHTML, like Gecko) Chrome/131.0.0.0 Safari/537.36" version="25.0.1">
  <diagram name="Página-1" id="V6erRQMQbP4JCtrHdaZo">
    <mxGraphModel dx="1434" dy="772" grid="1" gridSize="10" guides="1" tooltips="1" connect="1" arrows="1" fold="1" page="1" pageScale="1" pageWidth="827" pageHeight="1169" math="0" shadow="0">
      <root>
        <mxCell id="0" />
        <mxCell id="1" parent="0" />
        <mxCell id="j-uyjq3RvUBHWDxqru-Y-8" value="" style="shape=folder;fontStyle=1;spacingTop=10;tabWidth=160;tabHeight=20;tabPosition=left;html=1;whiteSpace=wrap;" vertex="1" parent="1">
          <mxGeometry x="120" y="390" width="460" height="210" as="geometry" />
        </mxCell>
        <mxCell id="j-uyjq3RvUBHWDxqru-Y-4" value="Interfaz&amp;nbsp;&lt;div&gt;Administrador&lt;/div&gt;" style="html=1;dropTarget=0;whiteSpace=wrap;" vertex="1" parent="1">
          <mxGeometry x="150" y="460" width="180" height="90" as="geometry" />
        </mxCell>
        <mxCell id="j-uyjq3RvUBHWDxqru-Y-5" value="" style="shape=module;jettyWidth=8;jettyHeight=4;" vertex="1" parent="j-uyjq3RvUBHWDxqru-Y-4">
          <mxGeometry x="1" width="20" height="20" relative="1" as="geometry">
            <mxPoint x="-27" y="7" as="offset" />
          </mxGeometry>
        </mxCell>
        <mxCell id="j-uyjq3RvUBHWDxqru-Y-6" value="Interfaz&amp;nbsp;&lt;div&gt;Usuario&lt;/div&gt;" style="html=1;dropTarget=0;whiteSpace=wrap;" vertex="1" parent="1">
          <mxGeometry x="370" y="460" width="180" height="90" as="geometry" />
        </mxCell>
        <mxCell id="j-uyjq3RvUBHWDxqru-Y-7" value="" style="shape=module;jettyWidth=8;jettyHeight=4;" vertex="1" parent="j-uyjq3RvUBHWDxqru-Y-6">
          <mxGeometry x="1" width="20" height="20" relative="1" as="geometry">
            <mxPoint x="-27" y="7" as="offset" />
          </mxGeometry>
        </mxCell>
        <mxCell id="j-uyjq3RvUBHWDxqru-Y-9" value="Presentacion" style="text;strokeColor=none;fillColor=none;align=left;verticalAlign=top;spacingLeft=4;spacingRight=4;overflow=hidden;rotatable=0;points=[[0,0.5],[1,0.5]];portConstraint=eastwest;whiteSpace=wrap;html=1;" vertex="1" parent="1">
          <mxGeometry x="120" y="390" width="100" height="26" as="geometry" />
        </mxCell>
        <mxCell id="j-uyjq3RvUBHWDxqru-Y-10" value="" style="shape=folder;fontStyle=1;spacingTop=10;tabWidth=160;tabHeight=20;tabPosition=left;html=1;whiteSpace=wrap;" vertex="1" parent="1">
          <mxGeometry x="670" y="390" width="540" height="390" as="geometry" />
        </mxCell>
        <mxCell id="j-uyjq3RvUBHWDxqru-Y-11" value="Logico" style="text;strokeColor=none;fillColor=none;align=left;verticalAlign=top;spacingLeft=4;spacingRight=4;overflow=hidden;rotatable=0;points=[[0,0.5],[1,0.5]];portConstraint=eastwest;whiteSpace=wrap;html=1;" vertex="1" parent="1">
          <mxGeometry x="670" y="386" width="100" height="26" as="geometry" />
        </mxCell>
        <mxCell id="j-uyjq3RvUBHWDxqru-Y-12" value="Registro de huella digital" style="html=1;dropTarget=0;whiteSpace=wrap;" vertex="1" parent="1">
          <mxGeometry x="720" y="440" width="180" height="90" as="geometry" />
        </mxCell>
        <mxCell id="j-uyjq3RvUBHWDxqru-Y-13" value="" style="shape=module;jettyWidth=8;jettyHeight=4;" vertex="1" parent="j-uyjq3RvUBHWDxqru-Y-12">
          <mxGeometry x="1" width="20" height="20" relative="1" as="geometry">
            <mxPoint x="-27" y="7" as="offset" />
          </mxGeometry>
        </mxCell>
        <mxCell id="j-uyjq3RvUBHWDxqru-Y-14" value="Registro de información de estudiante" style="html=1;dropTarget=0;whiteSpace=wrap;" vertex="1" parent="1">
          <mxGeometry x="950" y="442" width="180" height="90" as="geometry" />
        </mxCell>
        <mxCell id="j-uyjq3RvUBHWDxqru-Y-15" value="" style="shape=module;jettyWidth=8;jettyHeight=4;" vertex="1" parent="j-uyjq3RvUBHWDxqru-Y-14">
          <mxGeometry x="1" width="20" height="20" relative="1" as="geometry">
            <mxPoint x="-27" y="7" as="offset" />
          </mxGeometry>
        </mxCell>
        <mxCell id="j-uyjq3RvUBHWDxqru-Y-16" value="Edición de información de estudiante" style="html=1;dropTarget=0;whiteSpace=wrap;" vertex="1" parent="1">
          <mxGeometry x="721" y="550" width="180" height="90" as="geometry" />
        </mxCell>
        <mxCell id="j-uyjq3RvUBHWDxqru-Y-17" value="" style="shape=module;jettyWidth=8;jettyHeight=4;" vertex="1" parent="j-uyjq3RvUBHWDxqru-Y-16">
          <mxGeometry x="1" width="20" height="20" relative="1" as="geometry">
            <mxPoint x="-27" y="7" as="offset" />
          </mxGeometry>
        </mxCell>
        <mxCell id="j-uyjq3RvUBHWDxqru-Y-18" value="Eliminación de estudiantes" style="html=1;dropTarget=0;whiteSpace=wrap;" vertex="1" parent="1">
          <mxGeometry x="950" y="554" width="180" height="90" as="geometry" />
        </mxCell>
        <mxCell id="j-uyjq3RvUBHWDxqru-Y-19" value="" style="shape=module;jettyWidth=8;jettyHeight=4;" vertex="1" parent="j-uyjq3RvUBHWDxqru-Y-18">
          <mxGeometry x="1" width="20" height="20" relative="1" as="geometry">
            <mxPoint x="-27" y="7" as="offset" />
          </mxGeometry>
        </mxCell>
        <mxCell id="j-uyjq3RvUBHWDxqru-Y-20" value="Búsqueda de estudiantes" style="html=1;dropTarget=0;whiteSpace=wrap;" vertex="1" parent="1">
          <mxGeometry x="830" y="670" width="180" height="90" as="geometry" />
        </mxCell>
        <mxCell id="j-uyjq3RvUBHWDxqru-Y-21" value="" style="shape=module;jettyWidth=8;jettyHeight=4;" vertex="1" parent="j-uyjq3RvUBHWDxqru-Y-20">
          <mxGeometry x="1" width="20" height="20" relative="1" as="geometry">
            <mxPoint x="-27" y="7" as="offset" />
          </mxGeometry>
        </mxCell>
        <mxCell id="j-uyjq3RvUBHWDxqru-Y-22" value="" style="shape=folder;fontStyle=1;spacingTop=10;tabWidth=160;tabHeight=20;tabPosition=left;html=1;whiteSpace=wrap;" vertex="1" parent="1">
          <mxGeometry x="120" y="679" width="430" height="246" as="geometry" />
        </mxCell>
        <mxCell id="j-uyjq3RvUBHWDxqru-Y-23" value="&lt;br&gt;&lt;div&gt;&lt;span style=&quot;color: rgb(31, 31, 31); font-family: &amp;quot;Google Sans&amp;quot;, Arial, sans-serif-medium, sans-serif; text-align: start; background-color: rgb(255, 255, 255);&quot;&gt;&lt;font style=&quot;font-size: 13px;&quot;&gt;PostgreSQL&lt;/font&gt;&lt;/span&gt;&lt;/div&gt;" style="html=1;dropTarget=0;whiteSpace=wrap;" vertex="1" parent="1">
          <mxGeometry x="245" y="770" width="180" height="90" as="geometry" />
        </mxCell>
        <mxCell id="j-uyjq3RvUBHWDxqru-Y-24" value="" style="shape=module;jettyWidth=8;jettyHeight=4;" vertex="1" parent="j-uyjq3RvUBHWDxqru-Y-23">
          <mxGeometry x="1" width="20" height="20" relative="1" as="geometry">
            <mxPoint x="-27" y="7" as="offset" />
          </mxGeometry>
        </mxCell>
        <mxCell id="j-uyjq3RvUBHWDxqru-Y-25" style="edgeStyle=orthogonalEdgeStyle;rounded=0;orthogonalLoop=1;jettySize=auto;html=1;entryX=-0.006;entryY=0.492;entryDx=0;entryDy=0;entryPerimeter=0;" edge="1" parent="1" source="j-uyjq3RvUBHWDxqru-Y-8" target="j-uyjq3RvUBHWDxqru-Y-10">
          <mxGeometry relative="1" as="geometry" />
        </mxCell>
        <mxCell id="j-uyjq3RvUBHWDxqru-Y-26" style="edgeStyle=orthogonalEdgeStyle;rounded=0;orthogonalLoop=1;jettySize=auto;html=1;entryX=1.005;entryY=0.663;entryDx=0;entryDy=0;entryPerimeter=0;" edge="1" parent="1" source="j-uyjq3RvUBHWDxqru-Y-10" target="j-uyjq3RvUBHWDxqru-Y-22">
          <mxGeometry relative="1" as="geometry">
            <Array as="points">
              <mxPoint x="920" y="843" />
            </Array>
          </mxGeometry>
        </mxCell>
      </root>
    </mxGraphModel>
  </diagram>
</mxfile>
